# xmcd
#
# Track frame offsets:
#	150
#	14044
#	26379
#	39063
#	51433
#	65595
#	92158
#	105657
#	123162
#	136949
#	149949
#	162766
#	177791
#	192743
#
# Disc length: 2755 seconds
#
# Revision: 0
# Processed by: cddbd v1.5.2PL0 Copyright (c) Steve Scherf et al.
# Submitted via: EasyCDDAExtractor 16.0.6.1
#
DISCID=c70ac10e
DTITLE=The Miracles - Greatest Hits
DYEAR=2002
DGENRE=Motown
TTITLE0=Love Machine
TTITLE1=I Second That Emotion
TTITLE2=Ooh Baby Baby
TTITLE3=Mickey's Monkey
TTITLE4=You've Really Got a Hold on Me
TTITLE5=What Love Has Joined Together
TTITLE6=Going to a Go-Go
TTITLE7=Baby, Baby Don't Cry
TTITLE8=Here I Go Again
TTITLE9=Shop Around
TTITLE10=More Love
TTITLE11=The Tracks of My Tears
TTITLE12=A Fork in the Road
TTITLE13=Tears of a Clown
EXTD=
EXTT0=
EXTT1=
EXTT2=
EXTT3=
EXTT4=
EXTT5=
EXTT6=
EXTT7=
EXTT8=
EXTT9=
EXTT10=
EXTT11=
EXTT12=
EXTT13=
PLAYORDER=
